<?xml version="1.0" encoding="utf-8"?>
<!-- Generator: Adobe Illustrator 22.1.0, SVG Export Plug-In . SVG Version: 6.00 Build 0)  -->
<svg version="1.1" id="Layer_1" xmlns="http://www.w3.org/2000/svg" xmlns:xlink="http://www.w3.org/1999/xlink" x="0px" y="0px"
	 viewBox="0 0 237.5 17.7" style="enable-background:new 0 0 237.5 17.7;" xml:space="preserve">
<style type="text/css">
	.st0{fill:#FFFFFF;}
</style>
<g>
	<path class="st0" d="M15,0.8c0.1,0,0.1-0.1,0.1-0.2V0.2c0-0.1,0-0.1-0.2-0.1s-0.8,0.1-2.3,0.1c-1.4,0-2.3-0.1-2.5-0.1
		C10,0,10,0.1,10,0.2v0.5c0,0.1,0,0.2,0.1,0.2H11c0.5,0,0.9,0.4,0.9,0.9C12,2.3,12.1,3.5,12.1,5v4.4c0,1.5-0.3,2.8-1.1,3.6
		c-0.7,0.7-1.9,1.1-3.1,1.1c-1.2,0-2.5-0.4-3.3-1.5c-0.5-0.7-0.6-1.7-0.7-2.6c0-0.7-0.1-3.3-0.1-4.4V4.4c0-1.1,0-2.5,0-2.7
		c0-0.5,0.4-0.8,1-0.8h1c0.1,0,0.2,0,0.2-0.1V0.1C6.1,0.1,6,0,5.9,0C5.6,0,4.7,0.1,3,0.1S0.4,0,0.2,0C0,0,0,0.1,0,0.2v0.5
		c0,0.1,0,0.2,0.1,0.2h1c0.6,0,0.8,0.3,0.8,1.1v4.9c0,2.7,0.1,4.1,0.3,5c0.3,1.3,1.1,2.2,2.5,2.8c0.7,0.3,1.7,0.4,2.8,0.4
		c1.8,0,3.1-0.5,3.9-1.2c1.2-1,1.6-2.3,1.7-4c0.1-0.8,0.1-4.4,0.1-4.7c0-0.3,0-3.2,0-3.4c0.1-0.3,0.1-0.8,0.9-0.8L15,0.8L15,0.8z
		 M25.1,3.3c-0.2,0-0.9,0.1-1.4,0.1c-0.7,0-1.7-0.1-1.9-0.1c-0.1,0-0.2,0-0.2,0.1v0.5c0,0.1,0,0.2,0.2,0.2h0.4
		c0.4,0,0.7,0.1,0.8,0.4c0.1,0.3,0.2,1.6,0.2,2.1c0,0.7,0.1,1.4,0.1,2.7v1.5h-0.1c-0.3-0.3-2.4-2.9-2.8-3.4
		c-0.5-0.6-3.1-3.8-3.1-3.9c-0.1-0.1-0.2-0.2-0.5-0.2c-0.3,0-0.7,0-1.1,0c-0.2,0-0.6,0-0.9,0c-0.3,0-0.5,0-0.6,0
		c-0.1,0-0.1,0.1-0.1,0.1v0.5c0,0.1,0,0.1,0.1,0.1h0.2c0.6,0,1.2,0.4,1.2,1.2v2.4c0,2.5,0,4.1-0.1,4.4c-0.1,0.5-0.4,0.7-0.7,0.7
		h-0.5c-0.1,0-0.1,0-0.1,0.1v0.6c0,0.1,0,0.2,0.1,0.2c0.2,0,1.2-0.1,1.5-0.1c0.7,0,1.6,0.1,1.7,0.1c0.1,0,0.1,0,0.1-0.1v-0.5
		c0-0.1,0-0.1-0.1-0.1H17c-0.2,0-0.5-0.2-0.5-0.8c0-0.2-0.1-2.5-0.1-3.8V5.1h0c0.4,0.4,2.2,2.8,2.7,3.5c0.2,0.3,1.2,1.4,2.3,2.7
		c0.9,1.1,1.7,2,1.8,2.2c0.1,0.1,0.3,0.2,0.5,0.2c0.3,0,0.3-0.2,0.3-0.4V7.9c0-0.9,0-2.3,0.1-3.4c0-0.3,0.2-0.5,0.7-0.5h0.2
		c0.1,0,0.1-0.1,0.1-0.2V3.4C25.2,3.3,25.2,3.3,25.1,3.3z M30.3,12.7H30c-0.7,0-0.9-0.3-1-0.8c0-0.3,0-2.9,0-3.1V7.7
		c0-0.2,0-2.8,0-3.1c0-0.5,0.2-0.6,0.8-0.6h0.4c0.1,0,0.1-0.1,0.1-0.2V3.4c0-0.1,0-0.1-0.1-0.1c-0.2,0-1.3,0.1-2,0.1
		c-1.1,0-2.5-0.1-2.6-0.1c-0.1,0-0.1,0-0.1,0.1v0.5c0,0.1,0,0.2,0.1,0.2h0.4c0.9,0,1.2,0.2,1.2,0.5c0,0.3,0,2.6,0,2.9v1
		c0,0.8,0,3.6,0,3.8c0,0.4-0.4,0.4-1,0.4h-0.5c-0.1,0-0.1,0.1-0.1,0.1v0.5c0,0.1,0,0.2,0.1,0.2c0.1,0,1.4-0.1,2.2-0.1
		c1,0,2.2,0.1,2.4,0.1c0.1,0,0.1-0.1,0.1-0.2v-0.5C30.5,12.8,30.4,12.7,30.3,12.7z M60.2,12.7c-0.4,0-0.7,0-1-0.2
		c-0.4-0.3-0.9-1-1.3-1.4C57,9.7,56.5,9,56,8.9v0c1.8-0.6,2.7-1.5,2.7-3.1c0-0.5-0.3-1.2-0.8-1.6c-0.6-0.5-1.6-0.9-2.9-0.9
		c-0.3,0-2.3,0.1-2.5,0.1c-0.4,0-1.8-0.1-1.9-0.1c-0.1,0-0.1,0-0.1,0.1v0.5c0,0.1,0,0.2,0.1,0.2h0.2c0.6,0,0.8,0.3,0.9,0.7V7v1.4
		c0,1.4,0,2.7,0,3.8c0,0.5-0.3,0.6-0.8,0.6h-0.3c-0.1,0-0.1,0-0.1,0.1v0.5c0,0.1,0,0.2,0.1,0.2c0.2,0,1.3-0.1,1.9-0.1
		c0.7,0,2,0.1,2.1,0.1c0.1,0,0.2,0,0.2-0.2v-0.5c0-0.1,0-0.1-0.1-0.1h-0.6c-0.4,0-0.6-0.2-0.6-0.6V9.8V9.2c0.2,0,0.4,0,0.6,0
		c0.9,0,1.3,0.5,2.1,1.9c0.2,0.3,1.2,2.2,1.6,2.5c0.4,0,0.9,0,1.4,0c0.2,0,0.5,0,0.7,0c0.2,0,0.4,0,0.5,0c0.1,0,0.1-0.1,0.1-0.2V13
		C60.3,12.8,60.2,12.7,60.2,12.7z M53.9,8.5c-0.3,0-0.5,0-0.7,0V4.5c0-0.4,0.3-0.5,0.7-0.5c0.9,0,1.5,0.2,2.1,0.6
		c0.4,0.3,0.7,0.9,0.7,1.6C56.8,6.7,56.4,8.5,53.9,8.5z M63.8,7.2c-0.4-0.2-1.2-0.5-1.6-0.9C62,6,61.9,5.5,61.9,5.2
		c0-0.4,0.4-1.4,1.6-1.4c0.7,0,1.2,0.2,1.5,0.6C65.4,5,65.6,5.8,65.7,6c0,0.1,0.1,0.1,0.1,0.1L66.3,6c0.1,0,0.1-0.1,0.1-0.1
		c0-0.3-0.2-1.8-0.2-2.5c0-0.1,0-0.2-0.2-0.2s-0.3,0-0.3,0.1l-0.1,0.2c0,0.1-0.2,0.1-0.4,0c-0.3-0.1-0.7-0.3-1.6-0.3
		c-0.8,0-1.5,0.2-2.1,0.7c-0.5,0.4-1,1.1-1,1.9c0,1.1,0.3,1.8,0.8,2.3C62,8.6,63,9,63.5,9.1c1.2,0.4,2.1,1,2.1,2.3
		c0,1-1.1,1.5-1.8,1.5c-0.8,0-1.6-0.4-1.9-1.1c-0.4-0.7-0.4-1.2-0.4-1.5c0-0.1-0.1-0.1-0.2-0.2l-0.4,0c-0.1,0-0.1,0.1-0.2,0.2
		c0,0.4-0.2,2.2-0.2,2.8c0,0.1,0,0.2,0.2,0.2c0.2,0,0.3,0,0.3-0.1L61,13c0-0.2,0.2-0.2,0.3,0c0.5,0.4,1.3,0.8,2.5,0.8
		c2.1,0,3.1-1.4,3.1-3.1c0-1.1-0.3-1.7-0.7-2.2C65.7,7.9,64.8,7.6,63.8,7.2z M72.1,12.7h-0.3c-0.7,0-0.9-0.3-1-0.8
		c0-0.3,0-2.9,0-3.1V7.7c0-0.2,0-2.8,0-3.1c0-0.5,0.2-0.6,0.8-0.6H72c0.1,0,0.1-0.1,0.1-0.2V3.4c0-0.1,0-0.1-0.1-0.1
		c-0.2,0-1.3,0.1-2,0.1c-1.1,0-2.5-0.1-2.6-0.1c-0.1,0-0.1,0-0.1,0.1v0.5c0,0.1,0,0.2,0.1,0.2h0.4c0.9,0,1.2,0.2,1.2,0.5
		c0,0.3,0,2.6,0,2.9v1c0,0.8,0,3.6,0,3.8c0,0.4-0.4,0.4-1,0.4h-0.5c-0.1,0-0.1,0.1-0.1,0.1v0.5c0,0.1,0,0.2,0.1,0.2
		c0.1,0,1.4-0.1,2.2-0.1c1,0,2.2,0.1,2.4,0.1c0.1,0,0.1-0.1,0.1-0.2v-0.5C72.2,12.8,72.2,12.7,72.1,12.7z M118.3,13.3h-0.3
		c-0.7,0-0.9-0.3-1-0.8c0-0.3,0-2.9,0-3.1V8.3c0-0.2,0-2.8,0-3.1c0-0.5,0.2-0.6,0.8-0.6h0.4c0.1,0,0.1-0.1,0.1-0.2V4
		c0-0.1,0-0.1-0.1-0.1c-0.2,0-1.3,0.1-2,0.1c-1.1,0-2.5-0.1-2.6-0.1c-0.1,0-0.1,0-0.1,0.1v0.5c0,0.1,0,0.2,0.1,0.2h0.4
		c0.9,0,1.1,0.2,1.1,0.5c0,0.3,0,2.6,0,2.9v1c0,0.8,0,3.6,0,3.8c0,0.4-0.4,0.4-1,0.4h-0.5c-0.1,0-0.1,0.1-0.1,0.1V14
		c0,0.1,0,0.2,0.1,0.2c0.1,0,1.4-0.1,2.2-0.1c1,0,2.2,0.1,2.4,0.1c0.1,0,0.1-0.1,0.1-0.2v-0.5C118.4,13.4,118.4,13.3,118.3,13.3z
		 M129,13.3c-0.4,0-0.7,0-1-0.2c-0.4-0.3-0.9-1-1.3-1.4c-0.9-1.3-1.4-2-1.9-2.1v0c1.8-0.6,2.7-1.5,2.7-3.1c0-0.5-0.3-1.2-0.8-1.6
		c-0.6-0.5-1.6-0.9-2.9-0.9c-0.3,0-2.3,0.1-2.5,0.1c-0.4,0-1.8-0.1-1.9-0.1c-0.1,0-0.1,0-0.1,0.1v0.5c0,0.1,0,0.2,0.1,0.2h0.2
		c0.6,0,0.8,0.3,0.9,0.7v2.2v1.4c0,1.4,0,2.7,0,3.8c0,0.5-0.3,0.6-0.8,0.6h-0.3c-0.1,0-0.1,0-0.1,0.1V14c0,0.1,0,0.2,0.1,0.2
		c0.2,0,1.3-0.1,1.9-0.1c0.7,0,2,0.1,2.1,0.1c0.1,0,0.2,0,0.2-0.2v-0.5c0-0.1,0-0.1-0.1-0.1h-0.6c-0.4,0-0.6-0.2-0.6-0.6v-2.4V9.8
		c0.2,0,0.4,0,0.6,0c0.9,0,1.3,0.5,2.1,1.9c0.2,0.3,1.2,2.2,1.6,2.5c0.4,0,0.9,0,1.4,0c0.2,0,0.5,0,0.7,0c0.2,0,0.4,0,0.5,0
		c0.1,0,0.1-0.1,0.1-0.2v-0.4C129.1,13.4,129.1,13.3,129,13.3z M122.9,9.1c-0.3,0-0.5,0-0.7,0V5.1c0-0.4,0.3-0.5,0.7-0.5
		c0.9,0,1.5,0.2,2.1,0.6c0.4,0.3,0.7,0.9,0.7,1.6C125.8,7.3,125.4,9.1,122.9,9.1z M138.4,10.4V9.9c0-0.1,0-0.1-0.1-0.1s-1.1,0-1.9,0
		c-1.2,0-2.3,0-2.5,0c-0.1,0-0.1,0-0.1,0.1v0.5c0,0.1,0,0.1,0.1,0.1h0.5c0.6,0,1.1,0.2,1.1,0.7V12c0,0.5,0,0.7-0.3,1
		c-0.4,0.3-1.1,0.5-1.9,0.5c-0.6,0-1.5-0.3-2.2-1c-0.9-0.9-1.4-2.2-1.4-3.9c0-1,0.5-2.2,1.2-3c0.8-0.9,1.7-1.2,2.4-1.2
		c1,0,1.7,0.5,2.3,1.1c0.5,0.5,0.9,1.2,1.1,1.6c0.1,0.2,0.1,0.2,0.2,0.2l0.4-0.1c0.1,0,0.1-0.1,0.1-0.2c0-0.4-0.3-2.5-0.3-2.6
		c0-0.2,0-0.3-0.3-0.3c-0.2,0-0.2,0.1-0.3,0.2l-0.1,0.2c0,0.1-0.1,0.1-0.3-0.1c-0.4-0.3-1.5-0.7-2.6-0.7c-1.6,0-3,0.5-4,1.4
		c-1.1,0.9-1.7,2.3-1.7,3.7c0,1.8,0.5,3,1.4,4c1.1,1.2,2.9,1.6,4,1.6c1.4,0,2.7-0.3,3.9-0.9c0.2-0.1,0.2-0.1,0.2-0.3
		s-0.1-0.2-0.1-0.4V11c0-0.4,0.4-0.5,0.7-0.5h0.4C138.4,10.5,138.4,10.5,138.4,10.4z M143,13.3h-0.3c-0.7,0-0.9-0.3-1-0.8
		c0-0.3,0-2.9,0-3.1V8.3c0-0.2,0-2.8,0-3.1c0-0.5,0.2-0.6,0.8-0.6h0.4c0.1,0,0.1-0.1,0.1-0.2V4c0-0.1,0-0.1-0.1-0.1
		c-0.2,0-1.3,0.1-2,0.1c-1.1,0-2.5-0.1-2.6-0.1c-0.1,0-0.1,0-0.1,0.1v0.5c0,0.1,0,0.2,0.1,0.2h0.4c0.9,0,1.2,0.2,1.2,0.5
		c0,0.3,0,2.6,0,2.9v1c0,0.8,0,3.6,0,3.8c0,0.4-0.4,0.4-1,0.4h-0.5c-0.1,0-0.1,0.1-0.1,0.1V14c0,0.1,0,0.2,0.1,0.2
		c0.1,0,1.4-0.1,2.2-0.1c1,0,2.2,0.1,2.4,0.1c0.1,0,0.1-0.1,0.1-0.2v-0.5C143.2,13.4,143.1,13.3,143,13.3z M154.8,3.9
		c-0.2,0-0.9,0.1-1.4,0.1c-0.7,0-1.7-0.1-1.8-0.1c-0.1,0-0.2,0-0.2,0.1v0.5c0,0.1,0,0.2,0.2,0.2h0.4c0.4,0,0.7,0.1,0.8,0.4
		c0.1,0.3,0.2,1.6,0.2,2.1c0,0.7,0.1,1.4,0.1,2.7v1.5h-0.1c-0.3-0.3-2.4-2.9-2.8-3.4c-0.5-0.6-3.1-3.8-3.1-3.9
		c-0.1-0.1-0.2-0.2-0.5-0.2c-0.3,0-0.7,0-1.1,0c-0.2,0-0.6,0-0.9,0c-0.3,0-0.5,0-0.6,0c-0.1,0-0.1,0.1-0.1,0.1v0.5
		c0,0.1,0,0.1,0.1,0.1h0.2c0.6,0,1.2,0.4,1.2,1.2v2.4c0,2.5,0,4.1-0.1,4.4c-0.1,0.5-0.4,0.7-0.7,0.7h-0.5c-0.1,0-0.1,0-0.1,0.1V14
		c0,0.1,0,0.2,0.1,0.2c0.2,0,1.2-0.1,1.5-0.1c0.7,0,1.6,0.1,1.7,0.1c0.1,0,0.1,0,0.1-0.1v-0.5c0-0.1,0-0.1-0.1-0.1h-0.5
		c-0.2,0-0.5-0.2-0.5-0.8c0-0.2-0.1-2.5-0.1-3.8V5.7h0c0.4,0.4,2.2,2.8,2.7,3.5c0.2,0.3,1.2,1.4,2.3,2.7c0.9,1.1,1.7,2,1.8,2.2
		c0.1,0.1,0.3,0.2,0.5,0.2c0.3,0,0.3-0.2,0.3-0.4V8.5c0-0.9,0-2.3,0.1-3.4c0-0.3,0.2-0.5,0.7-0.5h0.2c0.1,0,0.1-0.1,0.1-0.2V4.1
		C155,3.9,154.9,3.9,154.8,3.9z M171.1,13.3h-0.4c-0.4,0-0.8-0.2-1.1-0.6c-0.2-0.2-1.1-2.9-1.5-4c-0.3-0.9-1.4-4.1-1.8-5
		c0-0.2-0.1-0.3-0.2-0.3s-0.2,0.1-0.3,0.2c-0.2,0.2-0.8,0.6-1.3,0.7c-0.2,0-0.3,0.1-0.2,0.2c0,0.1,0,0.2,0.1,0.2
		c0.2,0.1,0,0.3,0,0.4c-0.1,0.4-1.5,3.5-1.6,3.8c-0.5,1.1-1.7,3.8-1.8,4c-0.2,0.3-0.5,0.5-0.9,0.5h-0.3c-0.7,0-0.9-0.3-1-0.8
		c0-0.3,0-2.9,0-3.1V8.3c0-0.2,0-2.8,0-3.1c0-0.5,0.2-0.6,0.8-0.6h0.4c0.1,0,0.1-0.1,0.1-0.2V4c0-0.1,0-0.1-0.1-0.1
		c-0.2,0-1.3,0.1-2,0.1c-1.1,0-2.5-0.1-2.6-0.1c-0.1,0-0.1,0-0.1,0.1v0.5c0,0.1,0,0.2,0.1,0.2h0.4c0.9,0,1.1,0.2,1.1,0.5
		c0,0.3,0,2.6,0,2.9v1c0,0.8,0,3.6,0,3.8c0,0.4-0.4,0.4-1,0.4h-0.5c-0.1,0-0.1,0.1-0.1,0.1V14c0,0.1,0,0.2,0.1,0.2
		c0.1,0,1.4-0.1,2.2-0.1c0.7,0,3.5,0,3.7,0c0.4,0,1.6,0.1,1.7,0.1c0.1,0,0.1-0.1,0.1-0.2v-0.5c0-0.1,0-0.2-0.2-0.2h-0.6
		c-0.5,0-0.5-0.3-0.4-0.7c0.1-0.3,0.8-2.1,0.9-2.4h3.6c0.2,0.5,0.8,2.3,0.9,2.8c0,0.2-0.1,0.4-0.4,0.4H167c-0.1,0-0.1,0.1-0.1,0.1
		v0.5c0,0.1,0,0.2,0.2,0.2c0.3,0,1.6-0.1,2.1-0.1c0.5,0,1.7,0.1,2,0.1c0.1,0,0.2-0.1,0.2-0.2v-0.5C171.2,13.4,171.2,13.3,171.1,13.3
		z M163.5,9.5c0.1-0.2,1.5-3.7,1.6-3.9c0.1-0.2,0.1-0.2,0.2-0.2s0.1,0.1,0.1,0.2c0,0.2,1.1,3.6,1.2,3.9L163.5,9.5L163.5,9.5z
		 M49.8,10.6c-0.1,0-0.2,0-0.3,0.1c-0.2,0.4-1,1.4-1.2,1.5c-0.8,0.6-1.4,0.6-2.4,0.6c-1,0-1.6-0.1-1.6-1.1c0-0.3,0-1.6,0-2.4V8.6
		c0.2,0,1,0,1.7,0.2c0.6,0.1,0.7,0.5,0.8,1.1c0,0.1,0.1,0.1,0.1,0.1l0.5,0c0.1,0,0.1,0,0.1-0.1c0-0.3-0.1-1-0.1-1.5
		c0-0.2,0-1.4,0-1.6c0-0.1,0-0.1-0.1-0.1l-0.5,0c-0.1,0-0.1,0-0.1,0.1c0,0.7-0.2,1-0.8,1.2c-0.2,0-1.5,0.1-1.6,0.1V4l2.4,0
		c0.2,0,0.6,0.1,0.9,0.3C47.8,4.8,48.9,6,49,6.1c0.1,0.1,0.2,0.1,0.2,0.1L49.5,6c0,0,0-0.1,0-0.2c0-0.2-0.7-2.1-0.7-2.3
		c0-0.3-0.1-0.3-0.1-0.3c-0.1,0-0.4,0-0.6,0l-5.1,0c-0.3,0-3.1,0-3.4,0c-0.5,0-1.7-0.1-1.8-0.1c-0.1,0-0.1,0.1-0.1,0.1v0.5
		c0,0.1,0,0.2,0.1,0.2H38c0.4,0,0.5,0.1,0.5,0.2c0,0.2-0.3,0.8-1.1,3.3c-0.1,0.3-1.2,3.1-1.4,3.6h-0.1c-0.1-0.4-1-3-1.1-3.5
		c-0.6-1.9-1-2.8-1-3.3c0-0.3,0.3-0.3,0.6-0.3h0.5c0.1,0,0.2,0,0.2-0.1V3.4c0-0.1,0-0.2-0.2-0.2c-0.1,0-1.5,0.1-2,0.1
		c-0.6,0-1.8-0.1-1.9-0.1c-0.1,0-0.1,0-0.1,0.1v0.6c0,0.1,0,0.1,0.1,0.1h0.2c0.3,0,0.5,0.2,0.7,0.4c0.2,0.2,0.8,2.3,1.2,3.3l0.2,0.5
		c0.2,0.5,1.4,3.8,1.9,5.1c0.1,0.2,0.2,0.3,0.4,0.3c0.2,0,0.3-0.1,0.4-0.2c0.2-0.3,2-4.7,2.2-5.2c0.2-0.6,1.4-3.5,1.9-4
		c0.2-0.2,0.5-0.3,0.9-0.3h0.3h0h0.2c0.9,0,1,0.1,1.1,0.6c0,0.2,0,1.7,0,2.9v1.4v3.4c0,0.3-0.1,0.4-1.1,0.4h-0.2
		c-0.1,0-0.2,0-0.2,0.1v0.5c0,0.1,0,0.2,0.1,0.2c0.3,0,1.5-0.1,1.9-0.1c4.7,0,5.9,0.1,6.1,0.1c0.1,0,0.2-0.1,0.3-0.2l0.8-2.4
		c0-0.1,0-0.1-0.1-0.2L49.8,10.6z M183.9,11.1c-0.1,0-0.1,0-0.2,0.1c-0.3,0.8-1.5,3.3-2.8,3.5c-0.6,0.1-4.3,0-4.8,0
		c-0.1-0.8-0.1-5.3-0.1-5.7V7c0-1.5,0.1-4.6,0.1-4.9c0-0.6,0.1-0.8,0.7-0.8h1.2c0.2,0,0.2-0.1,0.2-0.2V0.7c0-0.1,0-0.2-0.2-0.2
		c-0.2,0-1.1,0.1-3.1,0.1c-1.7,0-2.5-0.1-2.7-0.1c-0.1,0-0.1,0-0.1,0.1v0.5c0,0.1,0,0.2,0.1,0.2h1c0.6,0,0.7,0.2,0.8,0.8
		c0,0.4,0.1,2.6,0.1,3.9v1.2c0,1.3-0.1,6.6-0.1,7c0,0.3-0.1,0.6-0.9,0.6h-1c-0.1,0-0.1,0-0.1,0.2v0.5c0,0.1,0,0.2,0.2,0.2
		c0.3,0,1-0.1,2.7-0.1c2.2,0,7.8,0,8.3,0.1c0.1-0.6,1-4.2,1-4.3c0,0,0,0,0,0c0,0,0,0,0,0L183.9,11.1z M189.3,12.7H189
		c-0.7,0-0.9-0.3-1-0.8c0-0.3,0-3,0-3.1V7.6c0-0.2,0-2.9,0-3.1c0-0.5,0.2-0.6,0.8-0.6h0.4c0.1,0,0.1-0.1,0.1-0.2V3.2
		c0-0.1,0-0.1-0.1-0.1c-0.2,0-1.3,0.1-2,0.1c-1.1,0-2.5-0.1-2.6-0.1c-0.1,0-0.1,0-0.1,0.1v0.5c0,0.1,0,0.2,0.1,0.2h0.4
		c1,0,1.2,0.2,1.2,0.5c0,0.3,0,2.6,0,3v1c0,0.8,0,3.7,0,3.9c0,0.4-0.4,0.4-1,0.4h-0.5c-0.1,0-0.1,0.1-0.1,0.1v0.5
		c0,0.1,0,0.2,0.1,0.2c0.1,0,1.5-0.1,2.2-0.1c1,0,2.2,0.1,2.4,0.1c0.1,0,0.1-0.1,0.1-0.2v-0.5C189.5,12.7,189.4,12.7,189.3,12.7z
		 M237.3,3.1c-0.1,0-0.9,0.1-1.3,0.1c-0.7,0-1.8-0.1-2-0.1c-0.1,0-0.2,0.1-0.2,0.2v0.5c0,0.1,0,0.2,0.2,0.2h0.4
		c0.5,0,0.5,0.3,0.3,0.7c-0.1,0.2-2,2.9-2.3,3.5c-0.4-0.5-2.3-3.6-2.4-3.8c-0.1-0.1-0.1-0.4,0.3-0.4h0.3c0.1,0,0.2-0.1,0.2-0.2V3.3
		c0-0.1-0.1-0.2-0.2-0.2c-0.2,0-1.7,0.1-2.2,0.1c-0.5,0-1.7-0.1-1.9-0.1c-0.1,0-0.2,0.1-0.2,0.1v0.5c0,0.1,0,0.2,0.2,0.2h0.3
		c0.2,0,0.6,0,0.8,0.3c0.4,0.3,3.1,4.4,3.4,4.8v0.8c0,1.3,0,2.2,0,2.4c0,0.3-0.2,0.5-0.9,0.5h-0.3c-0.1,0-0.1,0.1-0.1,0.1v0.5
		c0,0.1,0,0.2,0.2,0.2c0.1,0,1.5-0.1,2-0.1c0.8,0,2,0.1,2.2,0.1c0.1,0,0.2-0.1,0.2-0.2v-0.5c0-0.1,0-0.1-0.2-0.1h-0.3
		c-0.4,0-0.8,0-0.8-0.5c0-0.3,0-0.9,0-1.5V8.8c0.5-0.8,3.2-4.5,3.5-4.7c0.2-0.1,0.5-0.2,0.8-0.2h0.2c0.1,0,0.1,0,0.1-0.2V3.3
		C237.5,3.1,237.4,3.1,237.3,3.1z M196.4,7.8L196.4,7.8c1.4-0.6,2.1-0.9,2.1-2.4c0-0.8-0.3-1.5-1.2-2c-0.5-0.3-1.5-0.4-2.8-0.4
		c-0.5,0-1.4,0.1-1.9,0.1c-0.4,0-1.9-0.1-2.1-0.1c-0.1,0-0.1,0-0.1,0.2v0.5c0,0.1,0,0.2,0.1,0.2h0.4c0.4,0,0.9,0,0.9,0.8
		c0,0.3,0.1,1.8,0.1,2.4v1.7c0,1.2,0,3-0.1,3.3c-0.1,0.3-0.3,0.6-0.6,0.6h-0.6c-0.1,0-0.2,0-0.2,0.1v0.5c0,0.2,0,0.2,0.2,0.2
		c0.4,0,1.2-0.1,1.8-0.1c0.8,0,1.5,0.1,2.3,0.1c1.5,0,2.6-0.2,3.2-0.5c0.8-0.3,1.2-1.4,1.2-2.2C199.2,9.2,198.2,8.4,196.4,7.8z
		 M193.6,6.6c0-1,0-2.2,0-2.5c0-0.2,0.1-0.3,0.2-0.3c0.1,0,0.3,0,0.5,0c0.4,0,1.3,0.2,1.8,0.5c0.6,0.4,0.7,1,0.7,1.5
		c0,0.5-0.2,1.1-0.8,1.5c-0.5,0.3-1.3,0.4-2.3,0.3L193.6,6.6L193.6,6.6z M195.1,12.8c-1.1,0-1.5-0.6-1.5-1.7V8.3
		c0.7,0,1.4,0,2.2,0.3c0.9,0.3,1.5,1,1.5,2.2C197.2,12.2,196.1,12.8,195.1,12.8z M228.2,12.7c-0.4,0-0.7,0-1-0.3
		c-0.4-0.3-1-1-1.3-1.5c-0.9-1.3-1.4-2-1.9-2.2c1.8-0.6,2.7-1.5,2.7-3.1c0-0.5-0.3-1.2-0.8-1.7c-0.6-0.5-1.6-0.9-3-0.9
		c-0.3,0-2.3,0.1-2.6,0.1c-0.4,0-1.8-0.1-1.9-0.1c-0.1,0-0.1,0-0.1,0.1v0.5c0,0.1,0,0.2,0.1,0.2h0.2c0.6,0,0.8,0.3,0.9,0.7v2.2v1.4
		c0,1.4,0,2.7,0,3.8c0,0.5-0.3,0.6-0.8,0.6h-0.3c-0.4,0-0.8-0.2-1.1-0.6c-0.2-0.2-1.1-2.9-1.5-4.1c-0.3-0.9-1.5-4.2-1.8-5.1
		c0-0.2-0.1-0.3-0.2-0.3s-0.2,0.1-0.3,0.2c-0.2,0.2-0.8,0.6-1.3,0.7c-0.2,0-0.3,0.1-0.2,0.2c0,0.1,0,0.2,0.1,0.2
		c0.2,0.1,0,0.3,0,0.5c-0.1,0.4-1.5,3.5-1.6,3.8c-0.5,1.1-1.7,3.9-1.9,4.1c-0.1,0.1-0.2,0.2-0.3,0.2c-0.4-0.3-1-1-1.3-1.5
		c-0.9-1.3-1.4-2-1.9-2.2c1.8-0.6,2.7-1.5,2.7-3.1c0-0.5-0.3-1.2-0.8-1.7c-0.6-0.5-1.6-0.9-3-0.9c-0.3,0-2.3,0.1-2.5,0.1
		c-0.4,0-1.8-0.1-1.9-0.1c-0.1,0-0.1,0-0.1,0.1v0.5c0,0.1,0,0.2,0.1,0.2h0.2c0.6,0,0.8,0.3,0.9,0.7v2.2v1.4c0,1.4,0,2.7,0,3.8
		c0,0.5-0.3,0.6-0.8,0.6h-0.3c-0.1,0-0.1,0-0.1,0.1v0.5c0,0.1,0,0.2,0.1,0.2c0.2,0,1.3-0.1,1.9-0.1c0.8,0,2,0.1,2.1,0.1
		c0.1,0,0.2,0,0.2-0.2v-0.5c0-0.1,0-0.1-0.1-0.1h-0.6c-0.5,0-0.6-0.3-0.6-0.6V9.7V9.1c0.2,0,0.4,0,0.6,0c1,0,1.3,0.5,2.1,1.9
		c0.2,0.3,1.2,2.2,1.6,2.5c0.8,0,1.2,0,2,0c0.9,0,2.1,0.1,2.2,0.1c0.1,0,0.1-0.1,0.1-0.2v-0.5c0-0.1,0-0.2-0.2-0.2h-0.6
		c-0.5,0-0.5-0.3-0.4-0.8c0.1-0.3,0.8-2.2,0.9-2.4h3.7c0.2,0.5,0.8,2.3,0.9,2.8c0,0.2-0.1,0.4-0.4,0.4h-0.4c-0.1,0-0.1,0.1-0.1,0.1
		v0.5c0,0.1,0,0.2,0.2,0.2c0.3,0,1.6-0.1,2.1-0.1c0.4,0,1,0.1,1.6,0.1c0.2,0,0.3,0,0.5,0c0.6,0,1.1-0.1,1.5-0.1c0.8,0,2,0.1,2.1,0.1
		c0.1,0,0.2,0,0.2-0.2v-0.5c0-0.1,0-0.1-0.1-0.1h-0.6c-0.5,0-0.6-0.3-0.6-0.6V9.7V9.1c0.2,0,0.4,0,0.6,0c1,0,1.3,0.5,2.1,1.9
		c0.2,0.3,1.2,2.2,1.6,2.5c0.4,0,0.9,0,1.5,0c0.2,0,0.5,0,0.7,0c0.2,0,0.4,0,0.5,0c0.1,0,0.1-0.1,0.1-0.2v-0.5
		C228.3,12.7,228.3,12.7,228.2,12.7z M202.9,8.4c-0.3,0-0.5,0-0.7,0v-4c0-0.4,0.3-0.5,0.7-0.5c0.9,0,1.5,0.2,2.2,0.6
		c0.4,0.3,0.8,0.9,0.8,1.6C205.9,6.6,205.5,8.4,202.9,8.4z M211.1,8.7c0.1-0.2,1.5-3.7,1.6-3.9c0.1-0.2,0.1-0.3,0.2-0.3
		c0.1,0,0.1,0.1,0.1,0.2c0,0.2,1.1,3.6,1.2,3.9H211.1z M221.9,8.4c-0.3,0-0.5,0-0.7,0v-4c0-0.4,0.3-0.5,0.7-0.5
		c0.9,0,1.5,0.2,2.2,0.6c0.4,0.3,0.8,0.9,0.8,1.6C224.8,6.6,224.4,8.4,221.9,8.4z M89.2,12.7h-0.3c-0.4,0-0.8,0-0.8-0.5
		c0-0.3,0-0.9,0-1.4V8.9c0.5-0.8,3.1-4.5,3.5-4.6c0.2-0.1,0.4-0.2,0.8-0.2h0.2c0.1,0,0.1,0,0.1-0.2V3.4c0-0.1,0-0.2-0.2-0.2
		c-0.1,0-0.9,0.1-1.3,0.1c-0.7,0-1.8-0.1-1.9-0.1c-0.1,0-0.2,0.1-0.2,0.2v0.5c0,0.1,0,0.2,0.2,0.2h0.4c0.5,0,0.5,0.3,0.3,0.7
		c-0.1,0.2-2,2.9-2.3,3.5c-0.4-0.5-2.2-3.5-2.4-3.7c-0.1-0.1-0.1-0.4,0.3-0.4H86c0.1,0,0.2-0.1,0.2-0.2V3.4c0-0.1-0.1-0.2-0.2-0.2
		c-0.2,0-1.7,0.1-2.2,0.1c-0.5,0-3.2,0-3.6,0c-0.9,0-1.7,0.1-2.4,0.1h-0.9c-2.5,0-3.8-0.1-4.1-0.2c-0.1,0-0.1,0-0.1,0c0,0,0,0,0,0.1
		c-0.2,0.7-0.6,2.1-0.7,2.5c0,0.1,0,0.2,0.1,0.2l0.4,0.2c0.1,0,0.2,0,0.2-0.1c0.3-0.6,0.8-1.3,1.3-1.7c0.8-0.2,2.1-0.2,2.5-0.2V9
		c0,1.4,0,2.5-0.1,3.4c0,0.2-0.2,0.4-0.5,0.4H75c-0.1,0-0.1,0-0.1,0.2v0.5c0,0.1,0,0.2,0.2,0.2c0.2,0,1.6-0.1,2.3-0.1
		c0.7,0,2.1,0.1,2.3,0.1c0.1,0,0.2-0.1,0.2-0.1v-0.5c0-0.1,0-0.2-0.2-0.2h-0.9c-0.4,0-0.5-0.2-0.5-0.6c0-0.2,0-1.9,0-4.2V4.1
		c0.4,0,2.1,0,2.6,0.2c0.5,0.4,0.9,1.2,1.1,1.7c0,0.1,0.1,0.1,0.2,0.1l0.4-0.1c0.1,0,0.1-0.1,0.1-0.2c-0.1-0.4-0.3-1.2-0.4-1.8
		c0.2,0,0.5,0.1,0.7,0.3c0.4,0.3,3.1,4.4,3.3,4.8v0.8c0,1.3,0,2.1,0,2.3c0,0.3-0.2,0.5-0.9,0.5h-0.3c-0.1,0-0.1,0.1-0.1,0.1v0.5
		c0,0.1,0,0.2,0.2,0.2c0.1,0,1.4-0.1,1.9-0.1c0.7,0,2,0.1,2.1,0.1c0.1,0,0.2-0.1,0.2-0.2v-0.5C89.4,12.8,89.3,12.7,89.2,12.7z
		 M115.2,2.2h0.6c0.1,0,0.1-0.1,0.1-0.1V1.5c0-0.1,0-0.1-0.1-0.1c-0.2,0-0.7,0.1-2.2,0.1c-1.3,0-2.3-0.1-2.5-0.1
		c-0.1,0-0.1,0-0.1,0.1V2c0,0.1,0,0.2,0.1,0.2h0.5c0.5,0,0.7,0.2,0.7,0.5c0,0.3-0.1,0.7-0.3,1.2c-0.3,0.9-1.1,3.3-1.3,3.9
		c-0.2,0.5-1.8,4.8-2.2,5.8h0c-0.5-1.3-1.7-4.9-2-5.7c-0.4-1.2-1.2-3.7-1.3-4.4C105,3.2,105,2.9,105,2.8c0-0.4,0.3-0.5,0.9-0.5h1
		c0.1,0,0.2-0.1,0.2-0.2V1.5c0-0.1,0-0.1-0.2-0.1c-0.2,0-1.1,0.1-2.9,0.1c-1.6,0-2.3-0.1-2.5-0.1c-0.1,0-0.1,0-0.1,0.1v0.5
		c0,0.1,0,0.1,0.1,0.1h0.5c0.4,0,0.7,0.2,0.9,0.7c0.3,0.6,1.3,3.7,1.8,5.2l0.2,0.7c0.3,0.8,2,5.5,2.6,7.5c0.1,0.3,0.2,0.5,0.4,0.5
		c0.1,0,0.2-0.1,0.3-0.3c0.1-0.2,2.8-6.9,3.1-7.6c0.4-0.9,2-5.2,2.6-5.9C114.1,2.5,114.5,2.2,115.2,2.2z M95.6,9
		c0-1-0.6-1.7-1.5-1.7c-0.3,0-0.5,0-0.7,0.1c-1.5,0.5-2.6,2.6-2.6,4.1c0,0.7,0.3,1.2,0.7,1.5c0.2,0.2,0.5,0.3,0.8,0.3
		C94.4,13.4,95.6,10.5,95.6,9z M91.4,12c0-0.7,0.3-1.5,0.8-2.3c0.5-0.9,1.1-1.4,1.6-1.6C94,8,94.2,8,94.3,8C94.8,8,95,8.3,95,8.7
		c0,0.9-1.5,3.9-3,3.9c-0.2,0-0.3-0.1-0.4-0.2C91.5,12.4,91.4,12.2,91.4,12z M101.5,3.4c-0.9,0-1.7,0.5-2.1,1
		c-0.8,0.8-1.3,2-1.7,3.3h-1.2c-0.1,0-0.1,0-0.2,0.1L96.3,8c0,0.1,0,0.1,0.1,0.1h1.3L96.2,13c-0.8,2.7-1.5,3.9-2.2,3.9
		c-0.1,0-0.2-0.1-0.2-0.2c0-0.2-0.3-0.6-0.7-0.6c-0.4,0-0.6,0.3-0.6,0.6c0,0.5,0.5,0.8,1,0.8c1.5,0,2.6-1.6,3.4-3.8
		c0.7-1.8,1.4-4.3,1.8-5.5h1.4c0.1,0,0.1,0,0.2-0.1l0.1-0.3c0-0.1,0-0.2-0.1-0.2h-1.4c0.5-1.6,1-3.7,2.3-3.7c0.4,0,0.6,0.3,0.6,0.4
		c0,0.3,0.2,0.6,0.6,0.6c0.3,0,0.6-0.2,0.6-0.7C102.8,3.9,102.4,3.4,101.5,3.4z"/>
</g>
</svg>
