<?xml version="1.0" encoding="utf-8"?>
<!-- Generator: Adobe Illustrator 23.0.2, SVG Export Plug-In . SVG Version: 6.00 Build 0)  -->
<svg version="1.1" id="Layer_1" xmlns="http://www.w3.org/2000/svg" xmlns:xlink="http://www.w3.org/1999/xlink" x="0px" y="0px"
	 viewBox="0 0 200 200" style="enable-background:new 0 0 200 200;" xml:space="preserve">
<style type="text/css">
	.st0{fill:#595959;}
	.st1{fill:#FFFFFF;}
</style>
<g>
	<path class="st0" d="M155.83,10.87H80.72c-6.91,0-12.52,5.6-12.52,12.52v56.33c0,6.91,5.6,12.52,12.52,12.52H99.5v16.43
		c0,1.92,2.19,3.03,3.74,1.9l24.43-18.33h28.17c6.91,0,12.52-5.6,12.52-12.52V23.39C168.35,16.48,162.75,10.87,155.83,10.87z"/>
</g>
<g>
	<path class="st0" d="M69.48,145.45c12.05,0,21.81-9.76,21.81-21.81s-9.76-21.81-21.81-21.81s-21.81,9.76-21.81,21.81
		S57.42,145.45,69.48,145.45z M84.35,151.72h-1.62c-4.05,1.95-8.55,3.12-13.34,3.12s-9.27-1.17-13.34-3.12h-1.62
		c-12.39,0-22.43,10.04-22.43,22.43v5.61c0,5.16,4.19,9.35,9.35,9.35h56.08c5.16,0,9.35-4.18,9.35-9.35v-5.61
		C106.78,161.77,96.74,151.72,84.35,151.72z M125.56,145.45c10.32,0,18.69-8.37,18.69-18.69s-8.37-18.69-18.69-18.69
		s-18.69,8.37-18.69,18.69S115.24,145.45,125.56,145.45z M134.82,151.72h-0.74c-2.71,0.93-5.57,1.56-8.61,1.56s-5.9-0.62-8.61-1.56
		h-0.74c-3.97,0-7.63,1.15-10.85,3c4.75,5.12,7.73,11.92,7.73,19.43v7.48c0,0.43-0.1,0.84-0.12,1.25h34.39
		c5.12,0,9.32-4.11,9.35-9.23C156.7,161.54,146.92,151.72,134.82,151.72z"/>
</g>
<g>
	<path class="st1" d="M93,31.26v-4.47C93,25.8,93.8,25,94.79,25h46.53c0.99,0,1.79,0.8,1.79,1.79v4.47c0,0.99-0.8,1.79-1.79,1.79
		H94.79C93.8,33.05,93,32.25,93,31.26z M94.79,47.37h46.53c0.99,0,1.79-0.8,1.79-1.79v-4.47c0-0.99-0.8-1.79-1.79-1.79H94.79
		c-0.99,0-1.79,0.8-1.79,1.79v4.47C93,46.57,93.8,47.37,94.79,47.37z M94.79,76h46.53c0.99,0,1.79-0.8,1.79-1.79v-4.47
		c0-0.99-0.8-1.79-1.79-1.79H94.79c-0.99,0-1.79,0.8-1.79,1.79v4.47C93,75.2,93.8,76,94.79,76z M94.79,61.68h46.53
		c0.99,0,1.79-0.8,1.79-1.79v-4.47c0-0.99-0.8-1.79-1.79-1.79H94.79c-0.99,0-1.79,0.8-1.79,1.79v4.47
		C93,60.88,93.8,61.68,94.79,61.68z"/>
</g>
</svg>
