<?xml version="1.0" encoding="utf-8"?>
<!-- Generator: Adobe Illustrator 23.0.2, SVG Export Plug-In . SVG Version: 6.00 Build 0)  -->
<svg version="1.1" id="Layer_1" xmlns="http://www.w3.org/2000/svg" xmlns:xlink="http://www.w3.org/1999/xlink" x="0px" y="0px"
	 viewBox="0 0 200 200" style="enable-background:new 0 0 200 200;" xml:space="preserve">
<style type="text/css">
	.st0{fill:#595959;}
</style>
<path class="st0" d="M162.5,153v5.25c0,8.7-7.05,15.75-15.75,15.75h-126C12.05,174,5,166.95,5,158.25v-84
	c0-8.7,7.05-15.75,15.75-15.75H26v15.75h-3.28c-1.09,0-1.97,0.88-1.97,1.97v80.06c0,1.09,0.88,1.97,1.97,1.97h122.06
	c1.09,0,1.97-0.88,1.97-1.97V153H162.5z M176.28,42.75H54.22c-1.09,0-1.97,0.88-1.97,1.97v80.06c0,1.09,0.88,1.97,1.97,1.97h122.06
	c1.09,0,1.97-0.88,1.97-1.97V44.72C178.25,43.63,177.37,42.75,176.28,42.75z M178.25,27c8.7,0,15.75,7.05,15.75,15.75v84
	c0,8.7-7.05,15.75-15.75,15.75h-126c-8.7,0-15.75-7.05-15.75-15.75v-84c0-8.7,7.05-15.75,15.75-15.75H178.25z M91.62,63.75
	c0,7.25-5.88,13.12-13.12,13.12S65.38,71,65.38,63.75s5.88-13.12,13.12-13.12S91.62,56.5,91.62,63.75z M68,95.25l12.97-12.97
	c1.54-1.54,4.03-1.54,5.57,0L99.5,95.25l33.97-33.97c1.54-1.54,4.03-1.54,5.57,0l23.47,23.47V111H68V95.25z"/>
</svg>
