<?xml version="1.0" encoding="utf-8"?>
<!-- Generator: Adobe Illustrator 23.0.2, SVG Export Plug-In . SVG Version: 6.00 Build 0)  -->
<svg version="1.1" id="Layer_1" xmlns="http://www.w3.org/2000/svg" xmlns:xlink="http://www.w3.org/1999/xlink" x="0px" y="0px"
	 viewBox="0 0 200 200" style="enable-background:new 0 0 200 200;" xml:space="preserve">
<style type="text/css">
	.st0{fill:#595959;}
</style>
<g>
	<path class="st0" d="M185.23,145.9l-17.94,4.81l15.61,20.47c1.08,1.42,0.81,3.41-0.51,4.49l-7.34,5.85
		c-1.37,1.09-3.31,0.78-4.39-0.59l-14.82-19.44l-10.62,19c-1.42,2.53-5,1.83-5.7-0.8l-19.47-72.67c-0.74-2.77,2.26-5.03,4.54-3.55
		l61.36,36.59C188.38,141.44,187.85,145.2,185.23,145.9L185.23,145.9z"/>
</g>
<g>
	<path class="st0" d="M151.66,17.93H27.34C19.42,17.93,13,24.35,13,32.27v105.19c0,7.92,6.42,14.34,14.34,14.34h124.31
		c7.92,0,14.34-6.42,14.34-14.34V32.27C166,24.35,159.58,17.93,151.66,17.93z M149.86,137.46H29.14c-0.99,0-1.79-0.81-1.79-1.79
		V65.74h124.31v69.93C151.66,136.65,150.85,137.46,149.86,137.46z"/>
</g>
</svg>
